<svg width="104" height="42" viewBox="0 0 104 42" fill="none" xmlns="http://www.w3.org/2000/svg">
<path d="M10.1888 26.5293C10.5128 26.5653 10.7983 26.9099 10.9448 27.169C11.0111 27.2864 11.571 28.1215 11.6361 28.0284C12.1446 27.3019 12.3969 26.442 12.8056 25.67C13.1373 25.0435 13.2742 26.142 13.5099 26.2063C13.7909 26.2829 14.4719 24.465 14.6083 24.158C14.6625 24.0361 14.9019 24.2696 14.9831 24.3196C15.7284 24.7782 16.5885 22.9978 16.8439 22.5879C18.4216 20.0567 19.47 17.2841 20.7983 14.6276C20.8328 14.5586 21.3957 13.2429 21.5866 13.5291C22.2741 14.5604 22.8171 15.7744 23.3182 16.902C23.5373 17.3949 23.9987 19.0063 24.3262 17.8453C24.5173 17.1675 24.6942 16.4523 25.024 15.8294C25.1827 15.5296 25.5317 16.5627 25.6572 16.7598C25.8384 17.0446 25.9828 17.7369 26.2646 17.1733C26.3123 17.0778 26.5885 16.1081 26.7039 16.23C27.0464 16.5915 27.2522 17.1569 27.5697 17.561C27.8629 17.9341 28.018 17.2332 28.1254 17.0312C28.2241 16.8456 28.9363 15.0265 29.2174 15.2414C29.3292 15.3269 29.5309 15.6592 29.5663 15.7131C30.1216 16.5582 30.6495 17.421 31.1752 18.2847C33.0233 21.3209 34.8511 24.3734 36.9774 27.2272C37.9363 28.5141 38.9668 29.7569 40.1241 30.8713C40.3013 31.042 40.6963 31.5102 41.0093 31.3624C41.655 31.0575 41.7214 29.3454 41.901 28.7779C42.5826 26.6239 43.4092 24.5399 44.0074 22.3553C44.0412 22.2318 44.2705 21.0643 44.5566 21.1083C44.762 21.1399 45.0598 21.8081 45.1704 21.9676C45.5504 22.5156 45.5355 22.813 45.7907 22.0839C45.8462 21.9254 46.2748 20.3727 46.4756 20.6237C46.7874 21.0134 46.9982 21.5727 47.3414 21.9159C47.4254 21.9999 47.5276 21.6963 47.5482 21.6575C47.7134 21.3454 47.8979 21.1398 48.1426 20.8951C48.4283 20.6094 48.619 21.5869 48.9438 21.1277C49.3703 20.5247 49.6317 19.7622 49.9259 19.0924C50.6176 17.5178 51.1925 15.9023 51.8256 14.3045C51.9865 13.8983 53.3965 9.93088 54.0935 10.0917C54.4122 10.1653 54.6687 10.6592 54.8107 10.8929C55.7279 12.4029 56.5577 13.9778 57.3952 15.5322C58.1829 16.9941 58.9143 18.4799 59.6567 19.9646C59.9936 20.6384 60.3094 21.4589 60.8973 21.9676C61.4927 22.483 61.5003 21.6021 61.7114 21.1212C61.7912 20.9394 62.2484 19.7045 62.5255 19.7191C62.8034 19.7337 63.4651 20.9216 63.6369 21.1535C63.833 21.4182 64.0289 20.4167 64.0956 20.2683C64.3905 19.6131 65.0578 20.7773 65.2522 20.9984C66.396 22.2996 67.714 23.7267 69.2388 24.5845C69.4458 24.7009 69.7917 24.9853 69.9948 24.7331C70.3432 24.3006 70.5794 23.7497 70.7831 23.2405C71.465 21.5358 71.6174 19.6357 72.3855 17.9745C72.4457 17.8443 72.7716 16.7841 73.051 17.0635C73.6004 17.6128 73.9863 18.3505 74.4273 18.9825C74.9136 19.6795 75.04 19.7909 75.3189 18.9696C75.8228 17.486 75.7548 19.3589 76.482 19.3185C76.8719 19.2968 76.9662 18.4511 77.1217 18.1748C77.2902 17.8751 77.4317 18.4354 77.5869 18.5561C77.7053 18.6482 79.0394 16.0474 79.1311 15.8681C80.0364 14.1 80.6339 12.1673 81.6446 10.4536C81.9069 10.0087 82.0706 9.76537 82.323 10.3243C82.7898 11.3579 83.3626 12.3762 83.9254 13.3612C84.1434 13.7426 84.2789 14.0157 84.4617 13.5485C84.7964 12.6932 85.0208 13.1524 85.3211 13.7876C85.9626 15.1448 86.0577 16.6867 86.6456 18.0585C86.8451 18.5239 86.8507 17.7032 87.0139 17.7032C87.5185 17.7032 88.066 20.4679 88.2028 20.8692C88.6335 22.1327 88.7611 21.5339 89.3529 20.6883C89.4693 20.522 90.6087 18.6272 90.7874 19.0471C91.0115 19.574 91.1749 20.1452 91.3559 20.6883C91.3643 20.7133 91.6518 21.6035 91.6919 21.567C91.9252 21.355 91.8736 20.2619 92.3575 20.2619C92.7557 20.2619 92.6681 21.0921 92.9519 20.4298C93.0098 20.2947 93.354 19.7867 93.5528 19.9259C93.6763 20.0123 93.7447 19.651 93.8113 19.5511" stroke="#F40E0E" stroke-linecap="round"/>
</svg>
