<svg width="104" height="42" viewBox="0 0 104 42" fill="none" xmlns="http://www.w3.org/2000/svg">
<path d="M10 26.5293C10.324 26.5653 10.6095 26.9099 10.756 27.169C10.8223 27.2864 11.3822 28.1215 11.4473 28.0284C11.9558 27.3019 12.2081 26.442 12.6168 25.67C12.9485 25.0435 13.0855 26.142 13.3211 26.2063C13.6021 26.2829 14.2831 24.465 14.4195 24.158C14.4737 24.0361 14.7132 24.2696 14.7943 24.3196C15.5396 24.7782 16.3997 22.9978 16.6552 22.5879C18.2328 20.0567 19.2812 17.2841 20.6095 14.6276C20.644 14.5586 21.2069 13.2429 21.3978 13.5291C22.0853 14.5604 22.6283 15.7744 23.1294 16.902C23.3485 17.3949 23.8099 19.0063 24.1374 17.8453C24.3286 17.1675 24.5054 16.4523 24.8352 15.8294C24.9939 15.5296 25.343 16.5627 25.4684 16.7598C25.6497 17.0446 25.794 17.7369 26.0758 17.1733C26.1235 17.0778 26.3997 16.1081 26.5151 16.23C26.8576 16.5915 27.0635 17.1569 27.381 17.561C27.6741 17.9341 27.8293 17.2332 27.9366 17.0312C28.0353 16.8456 28.7475 15.0265 29.0286 15.2414C29.1404 15.3269 29.3421 15.6592 29.3775 15.7131C29.9329 16.5582 30.4607 17.421 30.9864 18.2847C32.8345 21.3209 34.6623 24.3734 36.7887 27.2272C37.7475 28.5141 38.778 29.7569 39.9353 30.8713C40.1126 31.042 40.5075 31.5102 40.8205 31.3624C41.4662 31.0575 41.5326 29.3454 41.7122 28.7779C42.3938 26.6239 43.2204 24.5399 43.8186 22.3553C43.8524 22.2318 44.0818 21.0643 44.3678 21.1083C44.5732 21.1399 44.871 21.8081 44.9816 21.9676C45.3616 22.5156 45.3467 22.813 45.6019 22.0839C45.6574 21.9254 46.086 20.3727 46.2868 20.6237C46.5986 21.0134 46.8094 21.5727 47.1526 21.9159C47.2366 21.9999 47.3388 21.6963 47.3594 21.6575C47.5246 21.3454 47.7091 21.1398 47.9538 20.8951C48.2395 20.6094 48.4302 21.5869 48.755 21.1277C49.1815 20.5247 49.4429 19.7622 49.7372 19.0924C50.4288 17.5178 51.0037 15.9023 51.6368 14.3045C51.7977 13.8983 53.2077 9.93088 53.9047 10.0917C54.2235 10.1653 54.48 10.6592 54.6219 10.8929C55.5391 12.4029 56.3689 13.9778 57.2064 15.5322C57.9942 16.9941 58.7255 18.4799 59.4679 19.9646C59.8048 20.6384 60.1206 21.4589 60.7085 21.9676C61.304 22.483 61.3115 21.6021 61.5226 21.1212C61.6024 20.9394 62.0596 19.7045 62.3367 19.7191C62.6147 19.7337 63.2763 20.9216 63.4481 21.1535C63.6442 21.4182 63.8401 20.4167 63.9068 20.2683C64.2017 19.6131 64.8691 20.7773 65.0634 20.9984C66.2072 22.2996 67.5252 23.7267 69.0501 24.5845C69.257 24.7009 69.6029 24.9853 69.806 24.7331C70.1545 24.3006 70.3906 23.7497 70.5943 23.2405C71.2762 21.5358 71.4287 19.6357 72.1967 17.9745C72.2569 17.8443 72.5829 16.7841 72.8622 17.0635C73.4116 17.6128 73.7976 18.3505 74.2385 18.9825C74.7248 19.6795 74.8512 19.7909 75.1302 18.9696C75.634 17.486 75.566 19.3589 76.2932 19.3185C76.6831 19.2968 76.7775 18.4511 76.9329 18.1748C77.1014 17.8751 77.2429 18.4354 77.3981 18.5561C77.5165 18.6482 78.8506 16.0474 78.9423 15.8681C79.8477 14.1 80.4451 12.1673 81.4558 10.4536C81.7181 10.0087 81.8818 9.76537 82.1342 10.3243C82.601 11.3579 83.1738 12.3762 83.7366 13.3612C83.9546 13.7426 84.0901 14.0157 84.2729 13.5485C84.6076 12.6932 84.832 13.1524 85.1323 13.7876C85.7739 15.1448 85.8689 16.6867 86.4569 18.0585C86.6563 18.5239 86.6619 17.7032 86.8252 17.7032C87.3297 17.7032 87.8772 20.4679 88.014 20.8692C88.4448 22.1327 88.5723 21.5339 89.1642 20.6883C89.2805 20.522 90.4199 18.6272 90.5986 19.0471C90.8228 19.574 90.9861 20.1452 91.1672 20.6883C91.1755 20.7133 91.463 21.6035 91.5032 21.567C91.7364 21.355 91.6849 20.2619 92.1687 20.2619C92.5669 20.2619 92.4793 21.0921 92.7631 20.4298C92.821 20.2947 93.1652 19.7867 93.364 19.9259C93.4875 20.0123 93.5559 19.651 93.6225 19.5511" stroke="#0EF477" stroke-linecap="round"/>
</svg>
